# xmcd
#
# Track frame offsets:
#	150
#	20155
#	45315
#	65192
#	85082
#	106097
#	130795
#	151560
#	174250
#	196692
#	219865
#	244140
#	265600
#	287227
#
# Disc length: 4129 seconds
#
# Revision: 1
# Processed by: cddbd v1.5.1PL0 Copyright (c) Steve Scherf et al.
# Submitted via: CDex 1.50Beta5
#
DISCID=b0101f0e
DTITLE=V6 - “HAPPY” Coming Century,20th Century forever
DYEAR=2000
DGENRE=Pop
TTITLE0=羽根 〜BEGINNING〜
TTITLE1=Don’t Stop The Refrain
TTITLE2=野性の花(Over Drive Edit)
TTITLE3=恋のメロディ
TTITLE4=MY DAYS(COCONUTS GROOVE VERSION)
TTITLE5=SPEEDER’S HIGH
TTITLE6=Listen
TTITLE7=Life goes on(crashed bone mix)
TTITLE8=MIRROR
TTITLE9=IN THE WIND(B.MAY Mix)
TTITLE10=SOYOIDE 〜BREEZIN’ SOUL〜
TTITLE11=Running to the top
TTITLE12=太陽のあたる場所(FUNKY!!FREE!!version)
TTITLE13=翼の設計図
EXTD=
EXTT0=
EXTT1=
EXTT2=
EXTT3=
EXTT4=
EXTT5=
EXTT6=
EXTT7=
EXTT8=
EXTT9=
EXTT10=
EXTT11=
EXTT12=
EXTT13=
PLAYORDER=
